<?xml version="1.0" encoding="UTF-8"?>
<svg version="1.1" xmlns="http://www.w3.org/2000/svg" width="1317" height="1317">
<path d="M0 0 C6.24409616 1.1824332 12.35893335 1.72683118 18.69604492 1.96020508 C19.51594406 1.99123322 20.3358432 2.02226135 21.18058777 2.05422974 C24.58185094 2.17750248 27.98286592 2.29380654 31.38525391 2.38134766 C41.61888387 2.6597937 50.24385006 3.5840766 59.89135742 7.18701172 C63.60226467 8.53291464 67.32464608 9.56055656 71.15698242 10.47973633 C71.81250092 10.63827591 72.46801941 10.79681549 73.1434021 10.9601593 C74.52842432 11.2946238 75.91363376 11.62831375 77.29901123 11.96130371 C84.09508935 13.61919346 90.85858543 15.41184801 97.62792969 17.17504883 C99.42525049 17.64226463 101.22310091 18.107448 103.02148438 18.57055664 C115.65765607 21.82541533 128.12334361 25.42978446 140.52026367 29.50317383 C141.6039624 29.85895508 142.68766113 30.21473633 143.80419922 30.58129883 C146.52505572 31.48411465 149.24209793 32.39737501 151.95776367 33.31567383 C158.66410619 35.57575794 165.38183254 37.78845569 172.13354492 39.90942383 C173.4174902 40.31458503 174.70142581 40.71977691 175.98535156 41.125 C178.46553575 41.90522694 180.94774016 42.6790673 183.43212891 43.44580078 C185.12317749 43.97886841 185.12317749 43.97886841 186.84838867 44.52270508 C187.84773438 44.83312744 188.84708008 45.1435498 189.87670898 45.46337891 C192.52074319 46.50336244 194.30289304 47.75778304 196.52026367 49.50317383 C198.93057413 50.46220581 201.321204 51.3463336 203.77026367 52.19067383 C213.42359222 55.66143379 222.41235997 60.2499628 231.45385742 65.06567383 C238.71689007 68.85687385 246.2063671 71.74588702 253.87036133 74.60595703 C259.37318622 76.6639442 264.75162278 78.84866846 270.06323242 81.36645508 C272.80568732 82.63522197 275.59055471 83.75410759 278.39526367 84.87817383 C285.03177128 87.62927711 291.2492499 91.01518917 297.52026367 94.50317383 C300.2741044 96.03314368 303.02945738 97.56017336 305.78833008 99.08105469 C307.68814887 100.1285129 309.58512639 101.18114664 311.47875977 102.23974609 C315.87184389 104.66191961 320.19002588 106.83477683 324.88354492 108.61645508 C328.73436654 110.09195077 331.34935962 111.83346118 334.52026367 114.50317383 C337.77998753 116.47179137 341.12452731 118.28748894 344.45776367 120.12817383 C350.91941247 123.74509606 357.14548747 127.44826246 363.08276367 131.87817383 C368.91126997 136.21981628 374.9629266 139.40317933 381.52026367 142.50317383 C387.04711437 145.35896994 392.42452866 148.38915503 397.66088867 151.74926758 C399.09670288 152.66832886 399.09670288 152.66832886 400.56152344 153.60595703 C401.53790771 154.23203857 402.51429199 154.85812012 403.52026367 155.50317383 C405.38832975 156.69394264 407.25681411 157.88405554 409.12573242 159.07348633 C411.92862558 160.8583938 414.73151407 162.64330711 417.53393555 164.42895508 C418.45110352 165.01290039 419.36827148 165.5968457 420.31323242 166.19848633 C421.19156738 166.75955078 422.06990234 167.32061523 422.97485352 167.89868164 C424.6304904 168.94230773 426.29711955 169.96876214 427.97583008 170.97485352 C429.8539528 172.10247064 431.69227804 173.29597298 433.52026367 174.50317383 C433.52026367 175.16317383 433.52026367 175.82317383 433.52026367 176.50317383 C434.22666992 176.76356445 434.93307617 177.02395508 435.66088867 177.29223633 C448.9842219 182.93463155 461.12996627 192.97822201 472.65698242 201.57739258 C473.31843262 202.06941162 473.97988281 202.56143066 474.66137695 203.06835938 C475.89483436 203.98945584 477.12407932 204.91623585 478.34790039 205.85009766 C481.9756473 208.56546155 485.64507944 210.64972704 489.72851562 212.60961914 C491.85696004 213.67108617 493.7068781 214.91869362 495.58276367 216.37817383 C496.24663086 216.89250977 496.91049805 217.4068457 497.59448242 217.93676758 C499.39652959 219.40253008 501.15006018 220.90800097 502.89526367 222.44067383 C506.31599983 225.42226142 509.97638016 227.94901044 513.71166992 230.51879883 C519.9564198 234.93094478 525.94560882 239.70064442 531.96166992 244.41723633 C538.6083106 249.62515872 545.4115363 254.60695201 552.31323242 259.47192383 C557.89425706 263.43925305 562.97549996 267.65815609 568.00854492 272.29614258 C571.32580701 275.21099963 574.86722326 277.71919968 578.46557617 280.27270508 C584.06351708 284.36020413 589.41493136 288.76293352 594.80444336 293.11938477 C597.09609458 294.96757473 599.40235462 296.79718979 601.70776367 298.62817383 C608.84259294 304.33841156 615.91640205 310.13689786 622.70776367 316.25317383 C631.01140817 323.55762459 640.15093453 329.50317383 651.52026367 329.50317383 C659.41666115 328.82024215 666.33308611 326.76247528 673.52026367 323.50317383 C683.68317684 318.93536629 693.84755446 314.84715116 704.58276367 311.81567383 C705.28973389 311.61337158 705.9967041 311.41106934 706.72509766 311.20263672 C717.68550746 308.20435212 728.35843722 307.1395338 739.70776367 307.19067383 C741.62141724 307.19695801 741.62141724 307.19695801 743.57373047 307.20336914 C756.85898882 307.3619588 768.95301034 309.71742231 781.76098633 313.08984375 C787.0533825 314.4656018 792.32288868 315.29320416 797.75073242 315.91333008 C800.86982162 316.57762129 802.9546865 317.62237594 805.52026367 319.50317383 C805.52026367 320.16317383 805.52026367 320.82317383 805.52026367 321.50317383 C806.23311523 321.60629883 806.9459668 321.70942383 807.68041992 321.81567383 C813.15931549 323.14206395 817.76350354 326.56791815 822.52026367 329.50317383 C823.1008252 329.86008301 823.68138672 330.21699219 824.27954102 330.5847168 C832.11968636 335.42873761 839.43657214 340.58874549 846.52026367 346.50317383 C847.44838867 347.24696289 848.37651367 347.99075195 849.33276367 348.75708008 C856.87081569 354.81005392 863.48824619 361.15333865 869.74682617 368.51098633 C871.56260692 370.60740944 871.56260692 370.60740944 873.91088867 372.76879883 C876.97533259 375.98004245 879.26382417 379.39943674 881.64526367 383.12817383 C882.49874666 384.45581404 883.35541573 385.78141257 884.21557617 387.10473633 C884.5869873 387.68562012 884.95839844 388.26650391 885.34106445 388.86499023 C886.60570247 390.6218683 887.8859711 392.0822607 889.52026367 393.50317383 C890.18026367 393.50317383 890.84026367 393.50317383 891.52026367 393.50317383 C891.85026367 392.51317383 892.18026367 391.52317383 892.52026367 390.50317383 C894.15240124 389.02306314 895.85116556 387.61558665 897.58276367 386.25317383 C900.94677669 383.58694584 904.17570895 380.91226611 907.27026367 377.94067383 C915.31092525 370.85566465 925.68958372 366.45997328 935.82885742 363.35473633 C941.01411433 361.71411803 945.8545255 359.32892437 950.71948242 356.91723633 C951.84999023 356.3680957 952.98049805 355.81895508 954.14526367 355.25317383 C955.1894043 354.73239258 956.23354492 354.21161133 957.30932617 353.67504883 C962.27744612 351.86186636 966.04099319 351.87311418 970.89526367 353.94067383 C973.52026367 355.50317383 973.52026367 355.50317383 974.52026367 356.50317383 C974.72262033 359.05286768 974.83941613 361.60010347 974.94604492 364.15551758 C975.26796741 366.63285829 975.26796741 366.63285829 977.32885742 367.67895508 C978.05202148 367.95094727 978.77518555 368.22293945 979.52026367 368.50317383 C986.31506269 372.44301528 992.56406144 377.02961686 998.58276367 382.06567383 C1001.22434805 384.38578078 1001.22434805 384.38578078 1003.19995117 385.50317383 C1008.48833054 388.69970535 1010.81887723 392.92699413 1013.74291992 398.28442383 C1016.03605042 402.43725796 1018.62484106 406.36506042 1021.23510742 410.32348633 C1022.52026367 412.50317383 1022.52026367 412.50317383 1022.52026367 414.50317383 C1028.22865277 412.8778686 1032.98438245 410.85198946 1037.89135742 407.49145508 C1039.52026367 406.50317383 1039.52026367 406.50317383 1041.52026367 406.50317383 C1041.72264648 405.9540332 1041.9250293 405.40489258 1042.13354492 404.83911133 C1044.06559655 401.58455675 1046.8082048 399.48287366 1049.70776367 397.12817383 C1050.89273909 396.14649905 1052.07763569 395.16472912 1053.26245117 394.18286133 C1054.11274902 393.48435059 1054.11274902 393.48435059 1054.98022461 392.77172852 C1057.32033009 390.84414638 1059.619549 388.87105782 1061.91088867 386.88598633 C1063.09698859 385.86686164 1064.29708808 384.86397579 1065.50463867 383.87036133 C1068.91506761 381.01124234 1071.7984428 378.29856957 1074.33276367 374.62817383 C1076.81825467 371.10081948 1079.6291912 368.66660726 1083.02026367 366.00317383 C1087.02523184 362.84022053 1090.10627887 359.86507035 1092.98901367 355.67504883 C1094.90607336 352.95595397 1097.01699408 350.43486132 1099.14526367 347.87817383 C1103.31973898 342.78769138 1106.91897908 338.01033788 1109.52026367 331.94067383 C1111.54709283 327.24032294 1113.83657679 323.83240032 1117.89526367 320.62817383 C1130.38288395 310.51914789 1136.34184483 294.93229532 1142.34814453 280.51611328 C1144.40653445 275.61152266 1146.73157919 271.29185831 1150.52026367 267.50317383 C1152.95776367 267.50317383 1152.95776367 267.50317383 1155.52026367 268.50317383 C1161.26366734 277.52852245 1160.69703625 290.1588347 1158.80151367 300.37817383 C1156.61514974 308.41835088 1153.39405853 315.59483393 1149.19604492 322.76489258 C1146.91157619 326.69582526 1145.22380765 330.21079889 1144.08276367 334.62817383 C1142.65660911 339.79101267 1140.21893336 342.73520822 1136.52026367 346.50317383 C1131.94255793 351.50181803 1127.96553725 356.66134255 1124.14135742 362.25708008 C1122.18580151 364.96658526 1119.91056273 367.17416449 1117.52026367 369.50317383 C1114.64978498 373.06884658 1112.00090091 376.70211177 1109.64526367 380.62817383 C1107.25790468 383.85813012 1104.72566715 385.75204552 1101.48120117 388.06176758 C1098.0860211 390.55742783 1095.31072042 393.41995533 1092.83276367 396.81567383 C1092.18307617 397.65098633 1092.18307617 397.65098633 1091.52026367 398.50317383 C1090.86026367 398.50317383 1090.20026367 398.50317383 1089.52026367 398.50317383 C1089.25600586 399.10774414 1088.99174805 399.71231445 1088.71948242 400.33520508 C1087.45975452 402.61256334 1086.38167066 403.62937858 1084.33276367 405.19067383 C1081.47300594 407.51715706 1079.44889211 409.86476543 1077.33276367 412.87817383 C1073.79903508 417.59507048 1069.67631 420.34662029 1064.71948242 423.45629883 C1060.398047 426.22117326 1056.38265256 429.30553165 1052.30932617 432.42504883 C1049.52026367 434.50317383 1049.52026367 434.50317383 1046.23901367 436.53442383 C1043.00924275 438.87322346 1042.69503131 440.53660966 1042.02416992 444.37817383 C1041.47537974 446.6924518 1040.57306623 448.23505441 1039.33276367 450.25317383 C1036.50098486 455.47785798 1037.65122012 460.83549847 1038.52026367 466.50317383 C1075.3897703 465.91064643 1114.17501214 457.14450032 1146.75317383 439.45141602 C1148.48523853 438.52196875 1150.2429644 437.64085674 1152.00073242 436.76098633 C1160.11663351 432.63167675 1167.60392791 427.69528922 1173.90429688 421.04150391 C1177.02561795 418.07014206 1180.88331354 416.11128412 1184.58276367 413.94067383 C1185.39165039 413.44631836 1186.20053711 412.95196289 1187.03393555 412.44262695 C1192.62094252 409.1632003 1197.99342923 406.95853437 1204.52026367 406.50317383 C1205.51026367 406.83317383 1206.50026367 407.16317383 1207.52026367 407.50317383 C1208.39526367 409.50317383 1208.39526367 409.50317383 1208.52026367 412.50317383 C1205.94840493 417.15743723 1203.26341752 420.16894457 1198.52026367 422.50317383 C1196.93190365 424.0663564 1196.93190365 424.0663564 1195.45776367 425.94067383 C1192.34697755 429.61275397 1189.0916393 433.08497785 1185.70776367 436.50317383 C1185.22750732 436.99615967 1184.74725098 437.48914551 1184.25244141 437.99707031 C1183.04739774 439.20596055 1181.78764126 440.35980167 1180.52026367 441.50317383 C1179.86026367 441.50317383 1179.20026367 441.50317383 1178.52026367 441.50317383 C1178.45323242 442.10129883 1178.38620117 442.69942383 1178.31713867 443.31567383 C1177.20250794 446.37544448 1175.59435551 446.96579839 1172.77026367 448.50317383 C1169.056297 450.59985289 1165.83554139 452.81511081 1162.52026367 455.50317383 C1160.82306683 456.47329484 1159.12521063 457.44230969 1157.421875 458.40161133 C1153.86080445 460.46446283 1150.45409064 462.77305965 1147.03393555 465.05981445 C1137.14589483 471.53586382 1126.37119781 475.58656715 1115.33276367 479.62817383 C1113.18879424 480.4179681 1111.04545283 481.20941546 1108.90275574 482.00265503 C1107.58126799 482.49138689 1106.25898724 482.97798249 1104.93574524 483.46194458 C1101.89625713 484.58143662 1098.93834937 485.76673377 1095.98632812 487.10375977 C1092.48088831 488.51907152 1089.4713376 489.15754134 1085.73120117 489.63598633 C1084.45889648 489.80227539 1083.1865918 489.96856445 1081.87573242 490.13989258 C1081.22008301 490.22029785 1080.56443359 490.30070312 1079.88891602 490.38354492 C1077.91966541 490.62517964 1075.95235269 490.8824409 1073.98510742 491.13989258 C1066.73665761 492.066935 1059.50637199 492.79646422 1052.21411133 493.27099609 C1047.98362773 493.63561363 1046.02609336 493.94683968 1042.52026367 496.50317383 C1037.85971939 505.47264509 1035.08321192 515.52302908 1032.09057617 525.14379883 C1028.76462962 535.21666552 1024.30658389 540.70794135 1015.52026367 546.50317383 C1013.17730731 548.6307463 1010.95914775 550.67019583 1009.52026367 553.50317383 C1009.75700841 557.92438176 1011.01537008 560.80294408 1013.45776367 564.44067383 C1014.08553711 565.38813477 1014.71331055 566.3355957 1015.36010742 567.31176758 C1016.07295898 568.36493164 1016.78581055 569.4180957 1017.52026367 570.50317383 C1018.33507008 571.72255541 1019.1488302 572.94263663 1019.96166992 574.16333008 C1021.24620949 576.09223794 1022.53179116 578.02036888 1023.82226562 579.9453125 C1026.32289564 583.67937744 1028.76120661 587.44303698 1031.14526367 591.25317383 C1033.49256095 594.99002681 1035.9984622 598.53495918 1038.64526367 602.06567383 C1041.14665227 605.44398602 1043.23045319 608.70132808 1045.02026367 612.50317383 C1047.80261377 618.38215942 1051.62163038 623.32317155 1055.52026367 628.50317383 C1061.58508315 636.68224297 1067.13704765 645.00691765 1072.30932617 653.77661133 C1077.63171667 662.79132216 1083.29077672 671.39326354 1089.78735352 679.60473633 C1092.81242292 683.46782379 1095.48822266 687.46602678 1098.08276367 691.62817383 C1101.42375024 696.96441101 1105.07994925 701.84946456 1109.13745117 706.66333008 C1111.83082469 709.87330146 1114.43385024 713.14439627 1117.02026367 716.44067383 C1117.72107056 717.33206055 1117.72107056 717.33206055 1118.43603516 718.24145508 C1121.33990514 721.95063396 1124.16438957 725.70964047 1126.95776367 729.50317383 C1130.84424273 734.73174637 1135.0143406 739.6518967 1139.28295898 744.56689453 C1142.35127499 748.10828369 1145.26578785 751.69608451 1148.01245117 755.49536133 C1150.75066666 759.1415861 1153.72839887 762.59792736 1156.66479492 766.08520508 C1158.52026367 768.50317383 1158.52026367 768.50317383 1159.52026367 771.50317383 C1160.84129847 772.19389032 1162.17666023 772.85745561 1163.52026367 773.50317383 C1165.31616211 775.16381836 1165.31616211 775.16381836 1167.12963867 777.13598633 C1167.8025293 777.86043945 1168.47541992 778.58489258 1169.16870117 779.33129883 C1169.8622168 780.08926758 1170.55573242 780.84723633 1171.27026367 781.62817383 C1172.63875797 783.11114293 1174.00854823 784.59291718 1175.37963867 786.07348633 C1176.39755493 787.17333862 1176.39755493 787.17333862 1177.43603516 788.29541016 C1180.14993917 791.17017107 1182.9496064 793.95087088 1185.7734375 796.71728516 C1189.55902907 800.58753007 1192.07531079 803.95892558 1193.58276367 809.19067383 C1193.52026367 812.50317383 1193.52026367 812.50317383 1192.20776367 814.94067383 C1188.18907581 817.27712026 1184.03485376 817.62312607 1179.52026367 816.50317383 C1177.16088867 814.36254883 1177.16088867 814.36254883 1174.52026367 811.50317383 C1173.37109067 810.47091713 1172.20732249 809.4547539 1171.03198242 808.45239258 C1170.41154053 807.92226563 1169.79109863 807.39213867 1169.15185547 806.84594727 C1168.51030518 806.29970703 1167.86875488 805.7534668 1167.20776367 805.19067383 C1162.24689353 800.93832714 1157.44737261 796.63187991 1152.93823242 791.89379883 C1151.55025336 790.39026155 1151.55025336 790.39026155 1149.52026367 789.50317383 C1149.52026367 788.84317383 1149.52026367 788.18317383 1149.52026367 787.50317383 C1148.86026367 787.50317383 1148.20026367 787.50317383 1147.52026367 787.50317383 C1143.75841879 783.99384521 1140.31055194 780.16709056 1136.83276367 776.37817383 C1136.31746094 775.81702881 1135.8021582 775.25588379 1135.27124023 774.67773438 C1134.21079495 773.52240885 1133.15073616 772.36672845 1132.09106445 771.21069336 C1130.57314507 769.5606579 1129.04611227 767.91957678 1127.51635742 766.28051758 C1126.60086643 765.29235343 1125.68549574 764.3040778 1124.77026367 763.31567383 C1123.95041992 762.43524414 1123.13057617 761.55481445 1122.28588867 760.64770508 C1120.52026367 758.50317383 1120.52026367 758.50317383 1120.52026367 756.50317383 C1119.94018555 756.24793945 1119.36010742 755.99270508 1118.76245117 755.72973633 C1112.55111056 752.33189495 1108.13826974 746.13733319 1104.07104492 740.49145508 C1102.41902857 738.37337869 1100.63674132 736.55877644 1098.70776367 734.69067383 C1094.69832894 730.79579437 1091.23386892 726.5785242 1087.73901367 722.22192383 C1085.73245896 719.76318777 1083.65950766 717.40865533 1081.52026367 715.06567383 C1077.66822065 710.78731775 1074.28149077 706.23227869 1070.86791992 701.60083008 C1068.53228889 698.51904071 1066.0883014 695.57286684 1063.58276367 692.62817383 C1058.63774523 686.75978002 1054.22113011 680.60453731 1049.81323242 674.32836914 C1047.60678462 671.21367809 1045.34504006 668.13993656 1043.08276367 665.06567383 C1042.62667725 664.44547363 1042.17059082 663.82527344 1041.70068359 663.1862793 C1040.77404903 661.92652589 1039.84720908 660.66692353 1038.92016602 659.4074707 C1037.03915534 656.84871883 1035.16489415 654.28505622 1033.29052734 651.72143555 C1031.91437218 649.84177375 1030.53419254 647.96512979 1029.15307617 646.08911133 C1027.44643077 643.77072031 1025.75492709 641.44250948 1024.07495117 639.10473633 C1019.49169619 632.73384614 1019.49169619 632.73384614 1013.77026367 627.44067383 C1009.93318004 624.44157398 1008.5929603 620.72469444 1006.76245117 616.30395508 C1004.8574286 612.00866833 1002.21810298 608.33081894 999.52026367 604.50317383 C998.49464173 602.98556573 997.47379437 601.46471987 996.45776367 599.94067383 C995.95374023 599.19172852 995.4497168 598.4427832 994.93041992 597.67114258 C994.06688428 596.34354624 993.23314406 594.99519297 992.45385742 593.61645508 C989.34042327 588.13635143 985.25584903 583.83316937 980.79711914 579.42211914 C976.77538935 575.29418395 973.52026367 570.52882622 973.52026367 564.50317383 C966.89912396 562.87768945 960.34233262 561.4221014 953.58276367 560.50317383 C945.70928953 559.32451003 941.09693958 556.27458593 934.99682617 551.37817383 C932.48524282 549.47665962 929.90856102 547.87209558 927.20776367 546.25317383 C910.54860483 535.89684723 897.63965886 520.03438598 887.52026367 503.50317383 C886.9040918 502.50801758 886.28791992 501.51286133 885.65307617 500.48754883 C881.68276367 493.99067383 881.68276367 493.99067383 880.52026367 490.50317383 C879.62307617 490.07004883 879.62307617 490.07004883 878.70776367 489.62817383 C875.65644037 488.05892184 874.35080265 486.40678738 872.52026367 483.50317383 C871.91368525 480.80114267 871.70864078 478.28173621 871.52026367 475.50317383 C870.5534668 475.82930664 869.58666992 476.15543945 868.59057617 476.49145508 C861.8817916 478.74584145 855.17812613 480.96523021 848.37573242 482.92504883 C846.45416904 483.46917964 846.45416904 483.46917964 844.52026367 484.50317383 C843.43170423 486.65555272 842.45858955 488.78511498 841.52026367 491.00317383 C841.07602051 492.03571289 841.07602051 492.03571289 840.62280273 493.08911133 C836.05538291 503.80979623 831.77404856 514.65499062 827.52026367 525.50317383 C827.24819092 526.18637695 826.97611816 526.86958008 826.69580078 527.57348633 C823.8559036 534.87416991 821.77845515 542.43920512 819.5690918 549.94848633 C817.91069398 555.45730684 816.17984607 560.61173773 813.46435547 565.68774414 C811.8401348 568.81101926 810.62349951 572.08333111 809.39526367 575.37817383 C809.13447021 576.06999756 808.87367676 576.76182129 808.60498047 577.47460938 C806.89942758 582.12518114 805.67603684 586.65645103 805.03979492 591.58520508 C804.52026367 593.50317383 804.52026367 593.50317383 803.14135742 594.83520508 C800.71892088 597.32768798 799.93817202 600.12864061 798.77026367 603.37817383 C798.32166992 604.5924707 797.87307617 605.80676758 797.41088867 607.05786133 C796.51383001 610.52806196 796.22525496 612.19434101 797.52026367 615.50317383 C799.21892187 617.36448491 799.21892187 617.36448491 801.45776367 618.87817383 C802.27631836 619.47887695 803.09487305 620.07958008 803.93823242 620.69848633 C806.37170452 622.39933974 808.81988964 624.0768132 811.27026367 625.75317383 C815.2064523 628.47173596 818.84912717 631.43305588 822.45776367 634.56567383 C828.67577652 639.95569567 835.23367942 644.82014146 841.89697266 649.64404297 C845.25449903 652.07813565 848.57821888 654.49917176 851.73510742 657.19067383 C854.43443009 659.43190668 857.17365346 661.26989417 860.14526367 663.12817383 C865.8652006 666.87988401 870.69655415 671.09624231 875.63354492 675.79223633 C881.61429855 681.40880333 887.57779251 686.00058935 894.64526367 690.19067383 C895.82282227 690.89933594 895.82282227 690.89933594 897.02416992 691.62231445 C900.0843973 693.46206329 903.13898299 695.29189436 906.26245117 697.02270508 C909.06533347 698.86058119 911.16424145 701.12235137 913.52026367 703.50317383 C916.2032228 705.68408349 919.0015391 707.71233528 921.79174805 709.75317383 C945.82072837 727.73977898 951.72423095 764.91632387 957.06640625 792.27929688 C957.62364679 795.00974553 958.28688721 797.70550519 958.96508789 800.40795898 C960.68478305 807.28503527 961.95435244 814.10335288 962.89526367 821.12817383 C964.90043942 835.74590502 968.82045837 850.00224574 973.72729492 863.90161133 C974.581688 866.70469405 975.04084756 869.41638562 975.45776367 872.31567383 C976.55047852 879.69391658 978.9872702 886.52388602 981.52026367 893.50317383 C981.98239258 894.79674805 981.98239258 894.79674805 982.45385742 896.11645508 C989.12400321 913.75528504 998.88822354 929.05526545 1011.09838867 943.35083008 C1012.87636695 945.44477437 1014.48798616 947.44682974 1015.85620117 949.83520508 C1017.72595448 952.8329551 1019.86227805 955.23195012 1022.27026367 957.81567383 C1025.28438933 961.07915386 1028.2888898 964.34158045 1031.20776367 967.69067383 C1031.75819336 968.31973633 1032.30862305 968.94879883 1032.87573242 969.59692383 C1034.01638807 970.919109 1035.14311232 972.25339153 1036.25854492 973.59692383 C1039.47210488 977.41614364 1042.51634442 980.35927561 1046.68212891 983.09423828 C1048.68299639 984.62790892 1050.09040393 986.2607116 1051.68041992 988.21411133 C1055.50192492 992.66326896 1059.78181546 996.11628023 1064.45776367 999.62817383 C1065.21766602 1000.20954102 1065.97756836 1000.7909082 1066.76049805 1001.38989258 C1069.73912834 1003.66392801 1072.7317596 1005.91795054 1075.7409668 1008.15136719 C1076.4402832 1008.67093994 1077.13959961 1009.1905127 1077.86010742 1009.72583008 C1078.47877686 1010.18223877 1079.09744629 1010.63864746 1079.73486328 1011.10888672 C1081.63187999 1012.59033925 1083.38569646 1014.17431654 1085.14526367 1015.81567383 C1090.25185931 1020.36044362 1096.04734225 1023.83696867 1101.83325195 1027.43188477 C1103.32497271 1028.37915983 1104.78305842 1029.37895378 1106.23510742 1030.38598633 C1112.52409904 1034.70785114 1118.97595443 1037.4461841 1126.15209961 1039.93139648 C1131.18907956 1041.73346699 1134.68493309 1043.73325199 1138.52026367 1047.50317383 C1138.85026367 1048.49317383 1139.18026367 1049.48317383 1139.52026367 1050.50317383 C1137.30796768 1053.04731422 1135.86899697 1054.0506423 1132.52026367 1054.50317383 C1111.18604053 1055.13339705 1090.13333632 1047.23442872 1074.41088867 1032.88208008 C1071.09552677 1030.15362683 1067.70688623 1028.25361083 1063.89526367 1026.31567383 C1054.18351843 1021.35746972 1046.372283 1015.52551659 1038.49438477 1008.06469727 C1033.96426864 1003.80876886 1029.21179678 1000.0926374 1024.17651367 996.44067383 C1019.52290583 993.04627752 1015.73248034 989.78575807 1012.14526367 985.25317383 C1009.50363962 981.95332332 1006.8503887 978.7051381 1004.02026367 975.56567383 C1001.23556851 972.44401783 998.8241253 969.15799622 996.39526367 965.75317383 C992.92571595 961.03387478 989.21150136 957.19320454 984.83276367 953.31567383 C979.77263056 948.81625231 975.82152142 944.48084558 972.52026367 938.50317383 C972.08069336 937.72200195 971.64112305 936.94083008 971.18823242 936.13598633 C970.20743814 934.35812782 969.24087405 932.57237171 968.28588867 930.78051758 C966.92566938 928.25568576 965.54087397 925.75324392 964.12963867 923.25708008 C953.26191877 904.01866744 945.96135165 884.87558295 940.52026367 863.50317383 C937.01633678 850.09619933 933.21032798 836.7806163 929.35229492 823.47192383 C926.78211608 814.56984846 924.49293658 805.62956745 922.36401367 796.61254883 C919.48119207 784.3765526 919.48119207 784.3765526 916.39526367 772.19067383 C916.10393555 771.08079102 915.81260742 769.9709082 915.51245117 768.82739258 C914.57418357 765.68382671 913.50379172 762.65260271 912.32397461 759.59423828 C911.78566793 758.19369251 911.26296375 756.78705525 910.75561523 755.375 C906.13795355 742.63627678 900.38390941 735.42555772 889.52026367 727.50317383 C888.38140169 726.62873653 887.24589248 725.74991281 886.11401367 724.86645508 C883.96524549 723.19198314 881.80576002 721.53382123 879.63354492 719.88989258 C875.66845878 716.85015903 871.80902583 713.69297427 867.95776367 710.51098633 C867.15338867 709.8484082 866.34901367 709.18583008 865.52026367 708.50317383 C864.66819336 707.79418945 863.81612305 707.08520508 862.93823242 706.35473633 C860.88207545 704.78023164 859.18840233 703.7547035 856.83276367 702.75317383 C849.23250591 699.10333253 843.0535663 693.0184919 836.77416992 687.48754883 C836.03038086 686.83270508 835.2865918 686.17786133 834.52026367 685.50317383 C834.04186035 685.08100586 833.56345703 684.65883789 833.07055664 684.22387695 C820.87810428 673.51464562 807.40766064 663.32030594 790.52026367 662.50317383 C789.59987305 662.44129883 788.67948242 662.37942383 787.73120117 662.31567383 C782.09221699 661.99027831 782.09221699 661.99027831 777.02026367 664.06567383 C772.64317959 671.17843546 771.91577215 677.38676925 771.4362793 685.5637207 C770.91276526 692.17903441 769.06579266 696.15345476 764.08276367 700.75317383 C760.52263057 704.57380447 758.66241978 708.78069331 756.52026367 713.50317383 C756.12323242 714.26500977 755.72620117 715.0268457 755.31713867 715.81176758 C746.84542372 733.50094703 755.71432108 755.38943836 761.37451172 772.61010742 C766.58901234 788.61544167 770.9053792 804.93294433 773.78979492 821.52270508 C776.0370356 834.19869902 779.29606287 846.7187776 782.45776367 859.19067383 C786.16257171 873.8054862 789.60439809 888.51666667 792.45776367 903.32348633 C793.69803838 909.57894891 795.20511052 915.76928599 796.75952148 921.95288086 C797.09960199 923.31807976 797.43295978 924.68497119 797.75952148 926.0534668 C799.62231938 933.84996662 801.68740489 940.77892658 806.25952148 947.4699707 C808.57699711 951.20737137 808.69228316 954.86834122 808.94995117 959.19458008 C809.02342773 960.30510742 809.0969043 961.41563477 809.17260742 962.55981445 C809.31928442 964.86933389 809.46005742 967.17923702 809.59448242 969.48950195 C810.76577367 986.73130615 817.67804038 1001.82547452 824.52026367 1017.50317383 C824.84639648 1018.26887695 825.1725293 1019.03458008 825.50854492 1019.82348633 C827.68154539 1024.85872089 830.09010794 1029.77581465 832.52026367 1034.69067383 C832.85268066 1035.36855957 833.18509766 1036.04644531 833.52758789 1036.74487305 C835.59140733 1040.87961805 837.88065995 1044.69723357 840.52026367 1048.50317383 C842.22882652 1051.16853187 843.56065149 1053.60733188 844.70776367 1056.56567383 C850.52609521 1070.45169188 862.02228622 1083.30829857 872.49780273 1094.01464844 C875.63189259 1097.27748611 877.65857833 1100.39243383 879.52026367 1104.50317383 C882.29355957 1108.61176034 885.61029565 1111.14859373 889.55151367 1114.03833008 C893.68470828 1117.11362368 896.16380262 1119.10109369 897.45776367 1124.19067383 C897.47838867 1125.28379883 897.49901367 1126.37692383 897.52026367 1127.50317383 C895.52026367 1129.50317383 895.52026367 1129.50317383 893.19995117 1129.76879883 C882.18627077 1129.70744128 873.11876772 1127.71265043 864.79760742 1119.88208008 C864.31420898 1119.36516602 863.83081055 1118.84825195 863.33276367 1118.31567383 C860.7121983 1115.29865333 860.7121983 1115.29865333 857.08276367 1114.25317383 C851.79781424 1111.65705832 849.6383184 1107.35174893 846.52026367 1102.50317383 C845.19156509 1100.8328099 843.85921999 1099.1653265 842.52026367 1097.50317383 C841.92213867 1096.57504883 841.32401367 1095.64692383 840.70776367 1094.69067383 C838.94903151 1092.12794982 837.25584988 1090.11864226 835.14526367 1087.87817383 C829.35527758 1081.37062536 826.24691421 1073.39677031 823.08276367 1065.37817383 C820.15807036 1058.19339668 815.91763089 1052.19839108 810.83276367 1046.37817383 C808.64670139 1043.66036667 807.28029542 1041.033599 805.81323242 1037.88989258 C804.15340094 1034.82597405 802.1197921 1032.07115973 800.08276367 1029.25317383 C790.82666247 1016.18738543 786.95804089 1000.19596496 782.10229492 985.09692383 C779.65760018 977.43504379 779.65760018 977.43504379 776.33276367 970.12817383 C773.1270827 964.07874361 772.51179957 958.02197305 772.20776367 951.25317383 C771.66422672 942.25569608 769.37281945 933.74005807 767.15795898 925.02954102 C766.25885733 921.46755638 765.41740392 917.89320734 764.58276367 914.31567383 C764.42702881 913.6555127 764.27129395 912.99535156 764.11083984 912.31518555 C763.07929852 907.93458361 762.0742828 903.54837429 761.07885742 899.15942383 C758.04462492 885.56471172 758.04462492 885.56471172 754.39526367 872.12817383 C752.8142962 866.85613129 751.72086487 861.5921223 750.70776367 856.19067383 C749.21208077 848.24086927 747.20482241 840.5225461 744.95776367 832.75317383 C742.59851122 824.59136896 740.61606796 816.55880524 739.19604492 808.18676758 C738.34774103 803.56277585 737.1853083 799.05412398 736 794.50756836 C734.79413046 789.80508046 733.85590379 785.09665942 733.02026367 780.31567383 C731.96086492 774.32229714 730.43247116 768.62337449 728.55541992 762.83520508 C726.99716903 757.81940126 725.77094904 752.73036038 724.53588867 747.62817383 C723.86098937 744.84388339 723.13976271 742.0778873 722.37963867 739.31567383 C722.19401367 738.62449463 722.00838867 737.93331543 721.81713867 737.22119141 C721.30426782 735.3169294 720.77985883 733.41578554 720.25463867 731.51489258 C718.10135072 721.41159844 720.14173359 713.20640266 723.70776367 703.69067383 C724.32578857 701.97545532 724.32578857 701.97545532 724.95629883 700.22558594 C726.12867677 696.97880551 727.32154282 693.74030177 728.52026367 690.50317383 C729.48515197 687.85962938 730.44132974 685.21320739 731.39526367 682.56567383 C731.77166992 681.52797852 732.14807617 680.4902832 732.53588867 679.42114258 C733.82480643 675.60042209 734.82822977 671.73277322 735.74682617 667.80786133 C736.52026367 665.50317383 736.52026367 665.50317383 737.94921875 663.65673828 C739.6056435 661.38613646 740.47902449 659.37935662 741.43041992 656.74145508 C741.77524414 655.80092285 742.12006836 654.86039063 742.4753418 653.89135742 C743.02351562 652.36889404 743.02351562 652.36889404 743.58276367 650.81567383 C746.33800715 643.27974136 749.18859382 635.81108546 752.26806641 628.40161133 C758.07510821 614.38047549 762.48357185 600.12168879 766.62573242 585.54150391 C767.5205197 582.50230421 768.50054828 579.50251841 769.52026367 576.50317383 C765.8851044 577.59500612 762.25786321 578.71042813 758.63549805 579.84399414 C757.15369603 580.30577455 755.67049606 580.76308183 754.1862793 581.21704102 C751.75133865 581.96512519 749.32311737 582.7324344 746.89526367 583.50317383 C746.1136084 583.73987793 745.33195313 583.97658203 744.52661133 584.22045898 C740.17229952 585.62492212 738.10052906 586.59811547 735.52026367 590.50317383 C730.94223307 593.16949934 726.19588763 595.23860162 720.95776367 596.06567383 C720.15338867 596.21004883 719.34901367 596.35442383 718.52026367 596.50317383 C718.24182617 597.06004883 717.96338867 597.61692383 717.67651367 598.19067383 C716.1268673 601.28996656 713.95836348 603.42553806 711.58276367 605.94067383 C707.71860205 610.03247383 704.51694484 613.72094894 702.60229492 619.06567383 C701.28336196 622.0368441 699.69449613 623.43020021 697.20776367 625.50317383 C690.82678709 630.87662779 685.65601628 636.72373732 680.50854492 643.27270508 C679.5243457 644.37678711 679.5243457 644.37678711 678.52026367 645.50317383 C677.86026367 645.50317383 677.20026367 645.50317383 676.52026367 645.50317383 C676.29338867 646.03942383 676.06651367 646.57567383 675.83276367 647.12817383 C674.10398312 650.25644339 671.81131105 652.76509282 669.52026367 655.50317383 C669.04588867 656.34879883 668.57151367 657.19442383 668.08276367 658.06567383 C666.45662066 660.60245693 664.64808761 662.03442325 662.30541992 663.88208008 C659.15920657 666.73914472 656.66290098 670.1513292 654.02026367 673.46801758 C651.40419916 676.6440834 648.65203424 679.63461411 645.83276367 682.62817383 C642.66057268 686.00621055 639.7950656 689.37465254 637.33276367 693.31567383 C634.91299117 697.18039619 632.1363366 699.69804836 628.64135742 702.58520508 C625.3674795 705.54556246 622.74640744 708.96824042 620.00073242 712.41333008 C617.25619025 715.83212199 614.43656003 719.17555841 611.58276367 722.50317383 C611.07567871 723.09509521 610.56859375 723.6870166 610.04614258 724.296875 C606.81094639 728.05406023 603.50421941 731.7313076 600.14526367 735.37817383 C596.30583813 739.57446905 592.74519872 743.81789084 589.52026367 748.50317383 C588.77776367 749.53442383 588.03526367 750.56567383 587.27026367 751.62817383 C584.28901228 757.00927074 584.17856652 763.50023403 583.52026367 769.50317383 C583.35292725 770.63730713 583.18559082 771.77144043 583.01318359 772.93994141 C582.29964518 778.6476355 582.30706815 784.36760003 582.23901367 790.11254883 C582.22060425 791.31574768 582.20219482 792.51894653 582.18322754 793.75860596 C582.12476395 797.59008126 582.07185924 801.42160028 582.02026367 805.25317383 C581.9520645 810.28971457 581.87832853 815.32613297 581.80151367 820.36254883 C581.78793823 821.50044861 581.77436279 822.63834839 581.76037598 823.81072998 C581.66296539 830.18783698 581.32220668 836.48591021 580.74639893 842.83740234 C580.46303665 846.17778851 580.36113622 849.50324415 580.30932617 852.85473633 C580.28334774 854.19337181 580.25670509 855.53199452 580.22949219 856.87060547 C580.20956711 857.90847702 580.20956711 857.90847702 580.1892395 858.96731567 C579.89285308 873.53097496 579.13150637 888.03757013 578.08276367 902.56567383 C577.99046478 903.86580414 577.99046478 903.86580414 577.89630127 905.19219971 C575.51099534 938.47342381 575.51099534 938.47342381 571.45776367 953.12817383 C569.11688043 961.80684408 567.44885891 969.71572799 567.55541992 978.72583008 C567.55864258 979.84151367 567.56186523 980.95719727 567.56518555 982.10668945 C567.57692641 984.41703102 567.62395235 986.72745615 567.70581055 989.03637695 C567.64321086 997.36213543 567.64321086 997.36213543 564.39868164 1000.65893555 C562.64724779 1001.84182752 560.85530367 1002.9668751 559.02856445 1004.02978516 C553.22569359 1007.43842109 550.64743369 1012.76978088 548.20776367 1018.87817383 C545.9722369 1024.38736118 543.44354972 1029.70706181 540.75854492 1035.01098633 C536.60096343 1043.23571075 532.78297828 1051.59205034 529.02026367 1060.00317383 C522.64750255 1074.2487615 515.86865827 1088.23274476 508.52026367 1102.00317383 C505.43508536 1107.81804882 502.42675537 1113.65959995 499.52026367 1119.56567383 C493.79104554 1131.16156453 487.47010466 1142.45687868 480.68041992 1153.46411133 C479.58745021 1155.38508841 478.78991408 1157.24861274 478.02026367 1159.31567383 C476.45516713 1162.64150398 474.8603578 1163.8498218 472.05834961 1166.09521484 C469.56380698 1168.37871124 468.08263452 1171.15744054 466.39526367 1174.06567383 C462.45735335 1180.56022309 457.80123192 1185.6009973 452.31713867 1190.81176758 C449.93777779 1193.10140395 447.77347196 1195.42166623 445.64526367 1197.94067383 C442.84964736 1201.22484445 439.87927732 1203.80135851 436.52026367 1206.50317383 C435.75713867 1207.28692383 434.99401367 1208.07067383 434.20776367 1208.87817383 C427.41152829 1215.51635722 420.50693438 1219.60366587 411.89794922 1223.44287109 C406.39017699 1225.95026272 401.80679348 1229.03014312 397.01635742 1232.74145508 C390.52398202 1237.32371065 382.81419751 1239.62264175 374.89526367 1239.69067383 C374.13987305 1239.70485352 373.38448242 1239.7190332 372.60620117 1239.73364258 C370.52026367 1239.50317383 370.52026367 1239.50317383 367.52026367 1237.50317383 C367.8211462 1233.23681385 369.3468171 1231.27688628 372.4831543 1228.4465332 C373.01102539 1227.99084961 373.53889648 1227.53516602 374.08276367 1227.06567383 C374.58356445 1226.61385742 375.08436523 1226.16204102 375.6003418 1225.6965332 C381.57734143 1220.38280717 388.06599156 1215.78134167 394.6574707 1211.26953125 C402.29976493 1206.01070734 409.31490721 1200.55136566 415.94995117 1194.04272461 C417.69998934 1192.3269689 419.47009109 1190.63303799 421.23901367 1188.93676758 C429.12087575 1181.30010141 436.21528821 1173.48831307 442.52026367 1164.50317383 C443.21893555 1163.5105957 443.91760742 1162.51801758 444.63745117 1161.49536133 C450.59755659 1152.60978292 455.56479935 1143.19416094 460.56030273 1133.74072266 C465.41593172 1124.5646281 465.41593172 1124.5646281 468.19213867 1120.29223633 C470.84265014 1116.15713701 472.68343263 1111.79671916 474.52026367 1107.25317383 C474.86492676 1106.42124512 475.20958984 1105.58931641 475.56469727 1104.73217773 C477.05112673 1101.13840524 478.50763845 1097.53519027 479.93432617 1093.91723633 C482.16196778 1088.32657448 484.64939737 1083.56491082 488.11010742 1078.64379883 C490.41750903 1075.14115041 491.95923712 1071.38287998 493.52026367 1067.50317383 C493.85928711 1066.6755957 494.19831055 1065.84801758 494.54760742 1064.99536133 C496.4825839 1060.23814148 496.4825839 1060.23814148 498.22729492 1055.40942383 C499.47865304 1051.72121041 500.94792292 1048.7667875 503.23120117 1045.60083008 C507.18511734 1039.75805874 509.94885349 1033.44637395 512.77026367 1027.00317383 C513.33792125 1025.72162115 513.90571312 1024.44012795 514.47363281 1023.15869141 C519.4294984 1011.92063883 524.06086413 1000.56056538 528.49487305 989.10668945 C529.36726382 986.89164775 530.27805261 984.70332241 531.22338867 982.51879883 C541.47624313 957.80402336 544.72065055 930.05124722 544.50268555 903.55374146 C544.37649849 887.74158311 544.85266719 871.95355057 545.38909912 856.15246964 C545.45683429 854.15557283 545.52358998 852.15864289 545.59033203 850.16171265 C546.00771513 837.75807018 546.45617357 825.35889533 547.08666992 812.96411133 C547.41615782 806.47652735 547.58946228 800.02351338 547.53295898 793.52563477 C547.31450294 741.51629135 547.31450294 741.51629135 562.43432617 725.00317383 C564.67050395 722.32311057 566.00979526 719.63631688 567.52026367 716.50317383 C569.14129335 714.79208694 570.8152983 713.13064077 572.52026367 711.50317383 C577.16955507 706.54382825 577.16955507 706.54382825 580.95776367 700.94067383 C583.00031636 697.75429163 585.63452476 695.70335203 588.52026367 693.28442383 C590.36141665 691.64464696 591.86753318 689.99352422 593.39526367 688.06567383 C594.09651367 687.22004883 594.79776367 686.37442383 595.52026367 685.50317383 C596.18026367 685.50317383 596.84026367 685.50317383 597.52026367 685.50317383 C597.74713867 684.78129883 597.97401367 684.05942383 598.20776367 683.31567383 C599.78361495 679.93884965 601.72902984 677.94550343 604.52026367 675.50317383 C605.18026367 675.50317383 605.84026367 675.50317383 606.52026367 675.50317383 C606.7909668 674.92438477 607.06166992 674.3455957 607.34057617 673.74926758 C610.8819771 667.00653403 616.41476701 661.46132337 621.58276367 655.94067383 C629.85991769 647.09864641 629.85991769 647.09864641 635.52026367 636.50317383 C637.52026367 634.19067383 637.52026367 634.19067383 639.52026367 632.50317383 C640.18026367 632.50317383 640.84026367 632.50317383 641.52026367 632.50317383 C641.52026367 631.51317383 641.52026367 630.52317383 641.52026367 629.50317383 C642.3994043 629.14352539 643.27854492 628.78387695 644.18432617 628.41333008 C648.18404002 626.1230958 650.2085623 623.60115779 652.89526367 619.94067383 C653.85038869 618.67849767 654.80612224 617.41678179 655.76245117 616.15551758 C656.22748047 615.53531738 656.69250977 614.91511719 657.17163086 614.27612305 C659.05649908 611.79822424 661.03925634 609.4045056 663.02026367 607.00317383 C665.15318487 604.37041656 666.62649721 602.27795873 668.08276367 599.19067383 C669.85511683 595.87714401 671.90043511 594.64145883 675.09448242 592.77661133 C675.56499023 592.35637695 676.03549805 591.93614258 676.52026367 591.50317383 C676.52026367 590.18317383 676.52026367 588.86317383 676.52026367 587.50317383 C674.54026367 586.84317383 672.56026367 586.18317383 670.52026367 585.50317383 C670.52026367 587.48317383 670.52026367 589.46317383 670.52026367 591.50317383 C669.86026367 591.50317383 669.20026367 591.50317383 668.52026367 591.50317383 C668.2547168 590.93727539 667.98916992 590.37137695 667.71557617 589.78833008 C667.36237305 589.05485352 667.00916992 588.32137695 666.64526367 587.56567383 C666.2972168 586.83477539 665.94916992 586.10387695 665.59057617 585.35083008 C664.65176597 583.33984924 664.65176597 583.33984924 662.52026367 582.50317383 C660.73071677 582.40659511 658.93740833 582.37336915 657.14526367 582.37817383 C656.1887793 582.3755957 655.23229492 582.37301758 654.24682617 582.37036133 C651.59511569 582.35382215 651.59511569 582.35382215 649.57104492 583.26879883 C646.09851122 583.66565982 643.75506623 581.34498851 641.08276367 579.37817383 C640.24261719 578.79036133 640.24261719 578.79036133 639.38549805 578.19067383 C635.73936846 575.58690334 632.69256497 572.67547513 629.52026367 569.50317383 C627.06458673 567.68351142 627.06458673 567.68351142 624.52026367 566.19067383 C623.69526367 565.67891602 622.87026367 565.1671582 622.02026367 564.63989258 C619.08000687 563.30299457 617.70628175 562.8965407 614.52026367 563.50317383 C612.04103587 565.17776602 610.00893136 566.74667763 607.83276367 568.75317383 C607.24986572 569.28587891 606.66696777 569.81858398 606.06640625 570.36743164 C601.47230622 574.88673938 599.9424696 578.79901116 599.50073242 585.30004883 C599.51040039 586.3905957 599.51040039 586.3905957 599.52026367 587.50317383 C598.78678711 587.61016602 598.05331055 587.7171582 597.29760742 587.82739258 C594.32595995 588.55045167 592.57002955 589.56439037 590.08276367 591.31567383 C589.3015918 591.86094727 588.52041992 592.4062207 587.71557617 592.96801758 C586.99112305 593.47461914 586.26666992 593.9812207 585.52026367 594.50317383 C584.00432617 595.43129883 584.00432617 595.43129883 582.45776367 596.37817383 C578.98740905 598.88864313 576.18516505 601.78153438 573.25463867 604.89379883 C571.52026367 606.50317383 571.52026367 606.50317383 569.52026367 606.50317383 C567.9377117 610.82881588 567.06881715 614.93189483 566.52026367 619.50317383 C565.9144043 619.68750977 565.30854492 619.8718457 564.68432617 620.06176758 C554.93000169 623.43826451 548.23548975 630.06737601 541.81713867 637.96411133 C540.52026367 639.50317383 540.52026367 639.50317383 537.95776367 641.87817383 C535.72147097 644.28648904 534.55964989 646.18245328 533.08276367 649.06567383 C530.8362097 653.29448131 528.67902694 655.02391111 524.52026367 657.50317383 C519.2505983 661.77092842 514.56954664 666.38259456 510.21166992 671.56958008 C508.51439431 673.5098836 506.71358492 675.24215011 504.83276367 677.00317383 C501.81458165 679.94741376 500.20113859 682.84078459 498.48120117 686.65551758 C497.0159936 689.47276628 494.83311056 691.36379045 492.52026367 693.50317383 C491.18199063 695.1658767 489.84836582 696.83233564 488.52026367 698.50317383 C487.86985107 699.05207275 487.21943848 699.60097168 486.54931641 700.16650391 C483.87385088 703.24758688 483.08259156 706.45647171 482.11791992 710.32739258 C481.81349976 711.48358345 481.81349976 711.48358345 481.50292969 712.66313171 C480.84832591 715.16880147 480.2149265 717.6792571 479.58276367 720.19067383 C479.13782657 721.91621485 478.69243047 723.64163758 478.24658203 725.36694336 C475.49321547 736.12470597 473.00836409 746.90283747 471.05371094 757.83789062 C470.31325584 761.92617506 469.53470025 765.71091087 467.95385742 769.56176758 C465.85429598 774.77729759 465.72886286 780.14465162 465.34838867 785.70043945 C464.95399765 790.43692397 464.40849532 793.57865536 461.52026367 797.50317383 C458.37439819 801.81222307 456.51033921 805.89316472 455.08276367 810.99145508 C454.87594971 811.69408981 454.66913574 812.39672455 454.45605469 813.12065125 C453.80107057 815.34962784 453.15958519 817.58215913 452.52026367 819.81567383 C451.67384267 822.75157665 450.82044694 825.68528859 449.95776367 828.61645508 C449.75132736 829.31874237 449.54489105 830.02102966 449.3321991 830.74459839 C447.98678068 835.22088208 446.35291655 839.39483716 444.34692383 843.60742188 C442.9902064 846.71873635 442.38349837 849.93774646 441.70776367 853.25317383 C440.23875465 860.12251766 438.17237257 866.6335897 435.83276367 873.25317383 C433.33926627 880.34393689 431.95574187 886.36311718 431.75073242 893.88989258 C431.3907247 897.97201406 429.97257851 900.25746301 427.52026367 903.50317383 C426.53026367 904.16317383 425.54026367 904.82317383 424.52026367 905.50317383 C423.38762895 907.87831037 423.38762895 907.87831037 422.50463867 910.71020508 C422.144104 911.7658667 421.78356934 912.82152832 421.41210938 913.90917969 C421.03530029 915.03332275 420.65849121 916.15746582 420.27026367 917.31567383 C417.0443164 926.60579739 413.65905092 935.09310983 408.52026367 943.50317383 C407.82030273 944.72327148 407.82030273 944.72327148 407.10620117 945.96801758 C397.92076277 961.79878711 387.14515581 975.79361336 374.55932617 989.06396484 C370.65920508 993.19875605 367.06389811 997.43051017 363.75463867 1002.06176758 C363.34729492 1002.53743164 362.93995117 1003.0130957 362.52026367 1003.50317383 C361.86026367 1003.50317383 361.20026367 1003.50317383 360.52026367 1003.50317383 C360.2753418 1004.07422852 360.03041992 1004.6452832 359.77807617 1005.23364258 C356.59180269 1010.9827882 350.79695448 1015.46628683 345.83276367 1019.69067383 C341.02224595 1023.78888365 336.65903431 1028.34323068 332.26757812 1032.88085938 C331.39105591 1033.77478394 331.39105591 1033.77478394 330.49682617 1034.68676758 C329.97169434 1035.22873779 329.4465625 1035.77070801 328.90551758 1036.32910156 C327.52026367 1037.50317383 327.52026367 1037.50317383 325.52026367 1037.50317383 C325.26374023 1038.09485352 325.0072168 1038.6865332 324.74291992 1039.29614258 C323.40469483 1041.71178851 322.05873854 1043.03727288 319.95776367 1044.81567383 C318.89428711 1045.71866211 318.89428711 1045.71866211 317.80932617 1046.63989258 C314.77593774 1049.10905005 311.6752642 1051.48467773 308.56713867 1053.85864258 C306.77051855 1055.30211027 305.174247 1056.778978 303.58276367 1058.44067383 C302.90213867 1059.12129883 302.22151367 1059.80192383 301.52026367 1060.50317383 C300.86026367 1060.50317383 300.20026367 1060.50317383 299.52026367 1060.50317383 C299.24827148 1061.0987207 298.9762793 1061.69426758 298.69604492 1062.30786133 C293.50974546 1071.99125102 281.24714069 1079.00558472 272.33276367 1085.06567383 C267.92301172 1088.09782211 264.08313012 1091.55299284 260.15307617 1095.17504883 C250.15343287 1104.01746338 238.78964088 1111.51590671 227.50854492 1118.61645508 C224.7500548 1120.35809002 222.00793788 1122.12239282 219.26904297 1123.89453125 C213.92612886 1127.3491692 208.55501962 1130.73778507 203.07495117 1133.97192383 C201.16941789 1135.11407833 199.28142715 1136.28559689 197.40307617 1137.47192383 C196.30737305 1138.16286133 195.21166992 1138.85379883 194.08276367 1139.56567383 C192.59969727 1140.51120117 192.59969727 1140.51120117 191.08666992 1141.47583008 C167.62965063 1155.4524493 138.97812805 1163.66904785 111.70776367 1163.69067383 C110.87567383 1163.70291992 110.04358398 1163.71516602 109.1862793 1163.7277832 C107.98068359 1163.73068359 107.98068359 1163.73068359 106.75073242 1163.73364258 C106.03296631 1163.73775146 105.3152002 1163.74186035 104.57568359 1163.74609375 C102.17113158 1163.46191163 100.57853573 1162.76379194 98.52026367 1161.50317383 C97.58276367 1159.69067383 97.58276367 1159.69067383 97.52026367 1157.50317383 C100.58130554 1150.23319938 107.33340985 1146.22835279 114.33666992 1143.37036133 C115.05725586 1143.08418945 115.7778418 1142.79801758 116.52026367 1142.50317383 C118.22182617 1141.72973633 118.22182617 1141.72973633 119.95776367 1140.94067383 C122.65893064 1139.85072926 125.21728736 1138.96521044 128.00073242 1138.15551758 C141.14504427 1134.25837596 154.41471594 1130.16580705 166.96948242 1124.62426758 C168.70273748 1123.86248473 170.45720532 1123.14759568 172.22729492 1122.47583008 C187.13161402 1116.74653642 200.57945339 1107.74613541 213.55371094 1098.56762695 C214.3070874 1098.03717773 215.06046387 1097.50672852 215.83666992 1096.96020508 C216.50126221 1096.48558838 217.16585449 1096.01097168 217.85058594 1095.52197266 C219.52026367 1094.50317383 219.52026367 1094.50317383 221.52026367 1094.50317383 C221.52026367 1093.84317383 221.52026367 1093.18317383 221.52026367 1092.50317383 C223.31990056 1090.98395981 225.12521284 1089.5827663 227.02026367 1088.19067383 C228.22092093 1087.28763535 229.42007254 1086.38259245 230.61791992 1085.47583008 C231.25487793 1084.99388184 231.89183594 1084.51193359 232.5480957 1084.01538086 C246.39284353 1073.39958883 260.07269254 1062.23905119 272.27416992 1049.75708008 C276.28911911 1045.72816585 280.54621982 1041.99574357 285.08276367 1038.56567383 C287.96501162 1036.12684864 290.25520123 1033.37906959 292.69995117 1030.51098633 C294.38089937 1028.65689325 296.0888197 1027.08817045 298.02026367 1025.50317383 C300.6155433 1023.37030482 302.78715803 1021.13004013 304.95776367 1018.56567383 C307.87489934 1015.12762107 311.0191486 1012.27713915 314.46166992 1009.37817383 C317.54335985 1006.57132153 320.18188244 1003.41689964 322.85620117 1000.22583008 C323.67991211 999.37311523 323.67991211 999.37311523 324.52026367 998.50317383 C325.18026367 998.50317383 325.84026367 998.50317383 326.52026367 998.50317383 C326.91640869 997.62266357 326.91640869 997.62266357 327.32055664 996.72436523 C328.56649801 994.41757351 329.89638038 992.84327493 331.71557617 990.96411133 C332.34520264 990.30628662 332.9748291 989.64846191 333.62353516 988.97070312 C334.29070557 988.28016846 334.95787598 987.58963379 335.64526367 986.87817383 C341.25976814 980.97526896 346.63888293 975.03721935 351.52026367 968.50317383 C352.13643555 967.68204102 352.75260742 966.8609082 353.38745117 966.01489258 C354.72112929 964.20719634 356.03671641 962.3860533 357.33666992 960.55395508 C358.87338653 958.40695029 360.4316902 956.31785346 362.04760742 954.23364258 C370.66584084 942.8016758 375.77086573 930.07039825 381.13305664 916.8737793 C382.36682168 913.87600385 383.64460842 910.90647365 384.96166992 907.94458008 C390.55668366 895.3572958 395.12456545 882.520703 399.51538086 869.46899414 C400.91409875 865.34080538 402.36982829 861.23393788 403.83276367 857.12817383 C404.30467938 855.79113231 404.77606083 854.45390207 405.24682617 853.11645508 C406.04873091 850.84111188 406.85535644 848.56742157 407.66870117 846.29614258 C409.42799265 841.24975385 410.79797758 836.32216648 411.79760742 831.06958008 C413.29378501 823.95609258 415.56116408 817.31886886 418.16256714 810.54067993 C419.41856756 807.26223058 420.6368432 803.96972685 421.86010742 800.67895508 C422.09723953 800.04324081 422.33437164 799.40752655 422.57868958 798.75254822 C426.68637618 787.718996 429.83358953 776.71355759 432.13647461 765.16479492 C432.9679303 761.00665927 433.89509888 756.98013022 435.20776367 752.94067383 C436.74947643 748.18985244 437.21365416 743.47236244 437.52026367 738.50317383 C434.98904259 739.71375782 433.40202353 740.48297387 431.52026367 742.50317383 C430.93877227 744.88858185 430.93877227 744.88858185 430.70776367 747.50317383 C430.33276367 750.17114258 430.33276367 750.17114258 429.52026367 752.50317383 C427.33570715 754.04029122 425.27267866 754.79348508 422.75073242 755.65551758 C419.56725013 756.86535235 417.84987635 759.05708051 415.52026367 761.50317383 C412.59930841 763.62489133 409.56017233 765.55704106 406.52026367 767.50317383 C404.91276401 768.53968961 403.30849582 769.58123699 401.70776367 770.62817383 C401.00006836 771.08450195 400.29237305 771.54083008 399.56323242 772.01098633 C397.45073089 773.45091884 397.45073089 773.45091884 395.74291992 775.44458008 C392.74793907 778.21849029 389.45235012 779.62167607 385.77026367 781.31567383 C378.67143573 784.74252956 372.54169227 788.16126903 367.93823242 794.77661133 C361.69279689 803.71477414 352.31255354 808.98425372 342.52026367 813.50317383 C341.86026367 813.50317383 341.20026367 813.50317383 340.52026367 813.50317383 C340.14901367 814.33848633 340.14901367 814.33848633 339.77026367 815.19067383 C334.6077495 824.74132505 325.93650516 830.17541667 316.97729492 835.68676758 C315.65792706 836.49999003 314.33893077 837.31381556 313.02026367 838.12817383 C312.33738281 838.5498584 311.65450195 838.97154297 310.95092773 839.40600586 C305.81566317 842.6116918 300.87301551 846.03395775 295.95776367 849.56567383 C282.43707631 859.23113817 267.96653016 867.10783458 253.45776367 875.18676758 C248.77025855 877.79873647 244.10570529 880.44661876 239.45776367 883.12817383 C234.87842917 885.75209907 230.29505649 888.25564509 225.52026367 890.50317383 C224.45485352 891.03104492 224.45485352 891.03104492 223.36791992 891.56958008 C210.654585 897.65511006 197.09950752 902.33677286 183.52026367 906.06567383 C173.71403282 908.79238576 165.12756739 913.18387928 156.52026367 918.62817383 C147.36605349 924.2523291 136.71021436 926.86792031 126.38354492 929.51098633 C123.48809645 930.51432045 122.54611459 931.33800938 120.52026367 933.50317383 C114.6340945 935.78681208 108.06526767 935.70250856 101.83276367 935.75317383 C101.12039551 935.76243896 100.40802734 935.7717041 99.67407227 935.78125 C94.96747631 935.75338415 91.04541226 934.91353903 86.52026367 933.50317383 C85.10845907 933.31603865 83.69122396 933.16098214 82.27026367 933.06567383 C78.52026367 932.50317383 78.52026367 932.50317383 76.58276367 931.37817383 C74.01903779 926.85395169 74.29465585 922.60060146 75.62963867 917.76098633 C76.16195176 916.04546245 76.70920502 914.33451277 77.27026367 912.62817383 C77.53581055 911.78125977 77.80135742 910.9343457 78.07495117 910.06176758 C78.87178342 907.53588672 79.6910842 905.01860663 80.52026367 902.50317383 C80.7902417 901.68349121 81.06021973 900.86380859 81.33837891 900.01928711 C84.25442165 891.22142793 87.67901871 883.10222464 92.08276367 874.94067383 C97.80245671 864.32130771 102.56966289 853.32656324 107.33544922 842.25439453 C110.15168265 835.71490669 113.04036026 829.31471189 116.45776367 823.06567383 C118.78555945 818.77262545 121.04261501 814.4751118 123.14526367 810.06567383 C125.01208125 806.28876807 127.19851693 803.11547084 129.79760742 799.81176758 C131.96359552 796.90904884 133.89638552 793.87337512 135.83276367 790.81567383 C140.21656516 783.9128084 144.8251092 777.19811631 149.52026367 770.50317383 C150.09260742 769.6755957 150.66495117 768.84801758 151.25463867 767.99536133 C174.45105766 734.5262425 174.45105766 734.5262425 180.52026367 732.50317383 C183.25185927 732.41810304 185.95717811 732.38725818 188.68823242 732.40551758 C189.4830452 732.40693253 190.27785797 732.40834747 191.09675598 732.4098053 C193.63379693 732.41540005 196.17074943 732.42795155 198.70776367 732.44067383 C200.42846552 732.44568951 202.14916876 732.4502523 203.86987305 732.4543457 C208.08670397 732.46536776 212.30346883 732.48262877 216.52026367 732.50317383 C214.42826322 727.03752052 212.31390725 721.83461135 209.27026367 716.81567383 C206.86454546 712.43996699 205.39504621 709.5666524 206.52026367 704.50317383 C209.79960365 697.86823015 215.01357046 692.62155057 220.01245117 687.25708008 C222.30076746 684.74420939 224.42607379 682.17814107 226.52026367 679.50317383 C230.18427062 674.83989226 234.1133381 670.47380773 238.12963867 666.11254883 C240.23539435 663.81410962 242.29407781 661.48595835 244.33276367 659.12817383 C246.95726297 656.11990341 249.57198122 653.19874636 252.52026367 650.50317383 C253.18026367 650.50317383 253.84026367 650.50317383 254.52026367 650.50317383 C254.75745117 649.94114258 254.99463867 649.37911133 255.23901367 648.80004883 C256.80974064 645.98423341 258.73497832 644.02361967 261.02026367 641.75317383 C261.81432617 640.95395508 262.60838867 640.15473633 263.42651367 639.33129883 C265.52026367 637.50317383 265.52026367 637.50317383 267.52026367 637.50317383 C267.78452148 636.91149414 268.0487793 636.31981445 268.32104492 635.71020508 C269.56673681 633.41764509 270.79569632 631.95397621 272.70776367 630.19067383 C273.25819336 629.65829102 273.80862305 629.1259082 274.37573242 628.57739258 C277.77282275 626.87575353 279.92349084 627.48889949 283.52026367 628.50317383 C286.39135742 631.00708008 286.39135742 631.00708008 288.95776367 634.06567383 C289.40313477 634.58581055 289.84850586 635.10594727 290.30737305 635.6418457 C291.39416782 636.91561592 292.45950584 638.20764063 293.52026367 639.50317383 C294.13514648 638.56086914 294.7500293 637.61856445 295.38354492 636.64770508 C298.00155398 632.79487639 300.09829312 629.98838342 304.84057617 629.03833008 C307.07014173 628.78322305 309.27871839 628.60084465 311.52026367 628.50317383 C306.9681852 619.06729709 306.9681852 619.06729709 301.11010742 610.41723633 C300.52026367 608.50317383 300.52026367 608.50317383 301.44213867 605.72583008 C304.09047206 601.6189221 307.23388323 598.59181705 310.83276367 595.31567383 C311.54480957 594.65784912 312.25685547 594.00002441 312.99047852 593.32226562 C317.93330917 588.80936569 323.03482816 584.57425526 328.3515625 580.51196289 C333.3136286 576.71823459 338.04202534 572.69004941 342.7277832 568.56103516 C346.16127395 565.56249423 349.67907006 562.97884135 353.52026367 560.50317383 C355.04401896 559.42395423 356.5649436 558.34072491 358.08276367 557.25317383 C364.06431745 553.05890113 370.24963065 549.24739982 376.52026367 545.50317383 C377.98399414 544.59245117 377.98399414 544.59245117 379.47729492 543.66333008 C385.51904725 540.07207869 389.48757535 538.81143399 396.52026367 539.50317383 C396.76583008 537.9040918 396.76583008 537.9040918 397.01635742 536.27270508 C397.69990621 533.89792621 398.19090909 532.76755438 400.1340332 531.20776367 C402.24431618 530.07185698 404.37060172 529.11225028 406.58276367 528.19067383 C407.67234375 527.69083984 407.67234375 527.69083984 408.78393555 527.1809082 C413.30454747 525.17840902 417.69829606 523.93923558 422.53564453 522.96191406 C425.01622611 522.38853323 427.05355831 521.43251424 429.27026367 520.19067383 C432.97324989 518.22826178 436.63956485 516.67233256 440.58276367 515.25317383 C445.97768781 513.23881464 450.96563952 510.79654674 456.02026367 508.06567383 C472.80479396 499.00343794 490.38133286 491.87140669 508.40429688 485.66479492 C514.57532749 483.52750755 520.60736166 481.10023829 526.64135742 478.60473633 C529.52026367 477.50317383 529.52026367 477.50317383 531.52026367 477.50317383 C531.71362305 476.7787207 531.90698242 476.05426758 532.10620117 475.30786133 C533.98285311 471.58566219 536.7568014 469.85528042 540.14526367 467.62817383 C544.3383689 464.78751143 548.20879045 462.00584018 551.83276367 458.44067383 C555.81322037 454.762421 559.19520606 454.58637785 564.52026367 454.50317383 C564.85026367 449.88317383 565.18026367 445.26317383 565.52026367 440.50317383 C561.37434159 441.29543723 557.22994173 442.09251492 553.08740234 442.90185547 C551.68072266 443.17519286 550.2735005 443.4457549 548.86572266 443.71337891 C546.83107625 444.10069019 544.79865222 444.49826 542.76635742 444.89770508 C540.93609009 445.25119019 540.93609009 445.25119019 539.06884766 445.61181641 C535.27508668 446.56475905 532.07648524 447.89261369 528.52026367 449.50317383 C526.36791992 450.16333008 526.36791992 450.16333008 524.58276367 450.56567383 C523.99624023 450.70102539 523.4097168 450.83637695 522.80541992 450.97583008 C522.05131836 451.14985352 521.2972168 451.32387695 520.52026367 451.50317383 C519.30209961 451.85379883 518.08393555 452.20442383 516.82885742 452.56567383 C512.32732135 453.69457101 508.12984368 453.60799938 503.52026367 453.44067383 C495.79568742 453.2972627 488.75783524 454.08983409 481.22338867 455.71411133 C477.78576343 456.44660109 474.37371351 457.00745272 470.89526367 457.50317383 C465.1979054 458.34434707 459.61502641 459.52435899 454.00463867 460.81958008 C446.53179804 462.28566428 439.19358051 462.6035559 431.58813477 462.74291992 C421.10472801 462.95301106 411.74660454 463.53208629 401.67260742 466.46020508 C383.94567663 471.290037 364.13350425 471.17013778 345.85986328 472.50146484 C345.04437012 472.56111923 344.22887695 472.62077362 343.38867188 472.68223572 C341.86658059 472.79291315 340.34437176 472.90199233 338.82202148 473.00904846 C335.21483954 473.26998345 331.62725322 473.59295431 328.03466797 474.01098633 C323.62486835 474.51413987 319.22625083 474.81333367 314.79370117 475.02661133 C313.94770355 475.06773041 313.10170593 475.10884949 312.23007202 475.1512146 C299.54260896 475.72609081 286.84306452 475.92314698 274.14526367 476.12817383 C273.14036518 476.14452629 273.14036518 476.14452629 272.11516571 476.16120911 C229.07907563 476.85448402 186.21326672 476.06515304 143.61767578 469.34008789 C134.70958066 467.93627295 125.81231146 466.85633014 116.83276367 466.00317383 C107.18539559 465.06918288 97.91700595 463.47733537 88.48217773 461.27539062 C80.84920083 459.50629624 73.30039659 458.46208905 65.51000977 457.70922852 C62.12919663 457.35911731 58.76406984 456.88990234 55.39526367 456.44067383 C51.42503035 455.92230509 47.50110807 455.46739909 43.50073242 455.33129883 C34.31590371 455.00163399 28.25702533 453.69499831 21.31323242 447.55004883 C17.74211189 444.93289197 14.09342027 443.57521445 9.95776367 442.06567383 C8.33632056 441.45331685 6.71522671 440.84003426 5.09448242 440.22583008 C4.3086377 439.9307959 3.52279297 439.63576172 2.71313477 439.33178711 C-4.43151041 436.63206258 -11.31445901 433.62431204 -18.10473633 430.12817383 C-35.87052045 420.50478527 -35.87052045 420.50478527 -55.27661133 420.01879883 C-58.47765366 420.72257409 -61.58105164 420.71396802 -64.85473633 420.75317383 C-66.1412207 420.77895508 -67.42770508 420.80473633 -68.75317383 420.83129883 C-72.74056552 420.48020774 -75.10212235 419.60980418 -78.47973633 417.50317383 C-80.29223633 414.94067383 -80.29223633 414.94067383 -81.47973633 412.50317383 C-81.80973633 411.84317383 -82.13973633 411.18317383 -82.47973633 410.50317383 C-82.63438186 408.48024304 -82.78667873 406.4570866 -82.92333984 404.43286133 C-83.60481453 395.3049527 -85.2412771 389.50775962 -91.47973633 382.50317383 C-92.94948294 379.56368061 -92.77408141 377.29560819 -92.33911133 374.06958008 C-89.74679669 366.3279859 -82.30731147 361.69387453 -75.39794922 358.10498047 C-72.12538611 356.48975715 -68.81921856 354.97409987 -65.47973633 353.50317383 C-64.42012695 353.00688477 -63.36051758 352.5105957 -62.26879883 351.99926758 C-57.04335548 349.78314932 -51.5167774 348.45519275 -46.04223633 347.00317383 C-44.88224121 346.69420166 -43.72224609 346.38522949 -42.52709961 346.06689453 C-20.86980681 340.38626841 1.01375129 338.21991853 23.27026367 336.44067383 C24.9209787 336.30852478 24.9209787 336.30852478 26.6050415 336.17370605 C46.25138253 334.61988651 65.81577567 333.66204793 85.52026367 333.50317383 C86.34107422 333.49564087 87.16188477 333.48810791 88.00756836 333.48034668 C138.98191639 333.02366523 190.54632479 333.01308987 241.20678711 339.22265625 C244.91849842 339.67271496 248.63200007 340.10745675 252.3453064 340.54412842 C282.40118015 344.08051355 312.38885917 347.94322874 342.32885742 352.35864258 C343.28139404 352.49786133 344.23393066 352.63708008 345.21533203 352.78051758 C347.03819855 353.04706956 348.86065544 353.3164436 350.68261719 353.58911133 C358.01197485 355.06627314 358.01197485 355.06627314 364.80541992 353.03051758 C368.56151175 350.91737815 371.72082098 351.02518176 375.95776367 351.06567383 C376.69575195 351.04569336 377.43374023 351.02571289 378.1940918 351.00512695 C383.48506578 351.00983004 386.21396407 352.24082565 390.52026367 355.50317383 C392.54960392 356.3526246 392.54960392 356.3526246 394.39526367 356.75317383 C395.94213867 357.12442383 395.94213867 357.12442383 397.52026367 357.50317383 C397.85026367 358.82317383 398.18026367 360.14317383 398.52026367 361.50317383 C399.07375488 361.61387207 399.62724609 361.72457031 400.19750977 361.83862305 C401.84545898 362.16821289 403.4934082 362.49780273 405.14135742 362.82739258 C406.50454102 363.1000293 406.50454102 363.1000293 407.89526367 363.37817383 C410.53962207 363.90704551 413.18397142 364.43592884 415.82788086 364.96704102 C417.66589357 365.33304355 419.50515847 365.69279927 421.34545898 366.04711914 C422.24103516 366.22082031 423.13661133 366.39452148 424.05932617 366.57348633 C424.86837402 366.72833496 425.67742188 366.88318359 426.51098633 367.04272461 C428.52026367 367.50317383 428.52026367 367.50317383 430.52026367 368.50317383 C430.19026367 366.19317383 429.86026367 363.88317383 429.52026367 361.50317383 C428.79137939 361.29748779 428.06249512 361.09180176 427.31152344 360.87988281 C414.29814643 357.18300553 401.52042794 353.42647271 389.10620117 348.02661133 C385.83658494 346.63755868 382.58779679 345.46430272 379.20776367 344.37817383 C371.35771334 341.84382105 363.78228671 339.17090594 357.02026367 334.37817383 C351.406628 330.8107989 345.56403276 330.46692238 339.10595703 329.67749023 C332.57664854 328.82013683 327.27864969 327.04629619 321.31713867 324.18676758 C315.62149886 321.52344099 309.53402042 319.80566674 303.53808594 317.95141602 C302.6723999 317.67587891 301.80671387 317.4003418 300.91479492 317.11645508 C300.13982666 316.87709229 299.3648584 316.63772949 298.56640625 316.39111328 C296.30213927 315.40851705 295.23923979 314.24551307 293.52026367 312.50317383 C291.25714067 311.24007086 291.25714067 311.24007086 288.69604492 310.12817383 C287.27582031 309.4862207 287.27582031 309.4862207 285.8269043 308.83129883 C284.83883789 308.39301758 283.85077148 307.95473633 282.83276367 307.50317383 C281.37966797 306.84575195 281.37966797 306.84575195 279.8972168 306.17504883 C275.67771259 304.280694 271.47857946 302.4505567 267.11791992 300.90551758 C263.77814749 299.60369532 261.45385105 298.24743115 258.64526367 296.06567383 C250.97070296 290.50541371 242.51844233 288.09094391 233.50073242 285.43286133 C230.52026367 284.50317383 230.52026367 284.50317383 228.10620117 283.44848633 C223.57547363 281.7922385 218.78740948 281.59526534 214.01635742 281.06567383 C210.99049541 280.57883122 209.00905471 280.23814835 206.52026367 278.50317383 C206.04588867 277.47192383 205.57151367 276.44067383 205.08276367 275.37817383 C200.56500813 266.95317025 188.04747221 262.68952132 179.75683594 258.64624023 C168.85609597 253.28240471 158.50350535 246.86703909 148.31323242 240.26879883 C145.61523118 238.56320923 142.88254481 236.93829083 140.13061523 235.32226562 C133.83454765 231.61705064 127.82761515 227.68978395 121.93334961 223.375 C117.38620741 220.06515377 112.70604839 217.01557202 107.95776367 214.00317383 C102.73360121 210.68294909 97.73452265 207.23800527 92.89526367 203.37817383 C88.38384638 199.80404724 83.81974737 196.80499267 78.83276367 193.94067383 C72.30026434 190.17131803 66.93686941 185.77391047 61.52026367 180.50317383 C56.35529769 175.58314438 50.83454659 171.69691756 44.80786133 167.91162109 C36.47996688 162.64324975 27.55492208 156.39707426 21.52026367 148.50317383 C21.36686523 147.64079102 21.2134668 146.7784082 21.05541992 145.88989258 C20.79051758 144.7084668 20.79051758 144.7084668 20.52026367 143.50317383 C18.74321949 142.37659738 18.74321949 142.37659738 16.52026367 141.50317383 C14.76397726 140.12027114 13.03726783 138.69941978 11.33276367 137.25317383 C5.43763516 132.36280756 -0.53290894 127.99971715 -7.35473633 124.50317383 C-11.05850262 122.1327634 -12.05127135 120.62985044 -13.47973633 116.50317383 C-13.65118538 115.08937857 -13.79641409 113.67219243 -13.91723633 112.25317383 C-14.10286133 111.01567383 -14.28848633 109.77817383 -14.47973633 108.50317383 C-15.80430271 107.81925416 -17.13875606 107.15432216 -18.47973633 106.50317383 C-19.83251953 104.58300781 -19.83251953 104.58300781 -21.03051758 102.24926758 C-21.70824219 100.96632812 -21.70824219 100.96632812 -22.3996582 99.6574707 C-22.85920898 98.76092773 -23.31875977 97.86438477 -23.79223633 96.94067383 C-28.36860383 88.05791159 -33.66783047 80.60570943 -40.35473633 73.19067383 C-46.43795248 65.61913683 -49.82992086 56.41735367 -53.47973633 47.50317383 C-53.77074219 46.80482422 -54.06174805 46.10647461 -54.36157227 45.38696289 C-58.22899523 35.99059254 -60.34100384 28.25316329 -56.97973633 18.44067383 C-53.35675215 10.46760138 -48.56572519 4.9892404 -40.41723633 1.56567383 C-26.57782802 -3.02620358 -14.07095525 -2.81917829 0 0 Z M465.52026367 372.50317383 C465.47736612 374.43426964 465.47736612 374.43426964 466.52026367 376.50317383 C471.87971711 379.22183977 477.27899409 380.51283689 483.14526367 381.69067383 C484.39436523 381.95654297 484.39436523 381.95654297 485.66870117 382.2277832 C489.67127656 383.05315504 493.409337 383.74647357 497.52026367 383.50317383 C497.19026367 382.51317383 496.86026367 381.52317383 496.52026367 380.50317383 C494.35689465 379.44585982 494.35689465 379.44585982 491.67260742 378.71411133 C490.67422852 378.4124707 489.67584961 378.11083008 488.6472168 377.80004883 C487.59469727 377.49583008 486.54217773 377.19161133 485.45776367 376.87817383 C484.43231445 376.5662207 483.40686523 376.25426758 482.3503418 375.93286133 C476.72716938 374.26353823 471.36445015 373.02234526 465.52026367 372.50317383 Z M511.52026367 387.50317383 C515.16444107 389.93262543 517.23267639 389.66496957 521.52026367 389.50317383 C521.52026367 389.17317383 521.52026367 388.84317383 521.52026367 388.50317383 C518.22026367 388.17317383 514.92026367 387.84317383 511.52026367 387.50317383 Z M417.52026367 560.50317383 C418.99156741 564.86049643 421.35106982 568.22251517 424.14526367 571.81567383 C424.77561523 572.64035156 424.77561523 572.64035156 425.41870117 573.48168945 C426.44746406 574.82609551 427.48316458 576.16518796 428.52026367 577.50317383 C430.93148735 575.53781665 430.93148735 575.53781665 430.71557617 571.80786133 C430.70227267 570.33117275 430.67841202 568.85455024 430.64526367 567.37817383 C430.63172852 566.24702148 430.63172852 566.24702148 430.61791992 565.09301758 C430.59433237 563.22960128 430.55846086 561.3663479 430.52026367 559.50317383 C425.44124293 558.63955912 422.32803698 558.50970685 417.52026367 560.50317383 Z M315.52026367 664.50317383 C318.77554512 669.386096 321.82123856 672.97890499 326.52026367 676.50317383 C326.85026367 676.50317383 327.18026367 676.50317383 327.52026367 676.50317383 C327.52026367 672.54317383 327.52026367 668.58317383 327.52026367 664.50317383 C323.56026367 664.50317383 319.60026367 664.50317383 315.52026367 664.50317383 Z M226.52026367 752.50317383 C226.52026367 757.12317383 226.52026367 761.74317383 226.52026367 766.50317383 C228.99526367 766.99817383 228.99526367 766.99817383 231.52026367 767.50317383 C231.85026367 767.17317383 232.18026367 766.84317383 232.52026367 766.50317383 C232.1755626 760.75815591 230.52452986 757.25185265 227.52026367 752.50317383 C227.19026367 752.50317383 226.86026367 752.50317383 226.52026367 752.50317383 Z " fill="#FDFDFC" transform="translate(104.479736328125,58.496826171875)"/>
<path d="M0 0 C0.66 0 1.32 0 2 0 C2 0.66 2 1.32 2 2 C2.99 1.67 3.98 1.34 5 1 C5 1.66 5 2.32 5 3 C6.65 3.33 8.3 3.66 10 4 C10.6875 7.3125 10.6875 7.3125 11 11 C9.51953125 12.73046875 9.51953125 12.73046875 8 14 C7.03980636 12.41779413 6.08192202 10.83418669 5.125 9.25 C4.59132813 8.36828125 4.05765625 7.4865625 3.5078125 6.578125 C2.24403334 4.41725907 1.08501165 2.25429605 0 0 Z " fill="#E7E8E3" transform="translate(984,548)"/>
<path d="M0 0 C10.01875543 0.40692424 19.24020175 1.60892462 29 4 C29 4.33 29 4.66 29 5 C24.50549342 5.08989013 20.41598485 4.79487727 16 4 C14.52144657 3.84807524 13.04221034 3.70270944 11.5625 3.5625 C7.51360048 3.13702242 3.87449499 2.23654095 0 1 C0 0.67 0 0.34 0 0 Z " fill="#D3D5CF" transform="translate(598,442)"/>
<path d="M0 0 C1.5 1.375 1.5 1.375 3 3 C3 3.66 3 4.32 3 5 C2.01 5 1.02 5 0 5 C0 11.93 0 18.86 0 26 C-1.32 25.34 -2.64 24.68 -4 24 C-3.67 23.34 -3.34 22.68 -3 22 C-1.86030931 18.37980605 -1.72388339 14.77403433 -1.5 11 C-1.05633803 3.52112676 -1.05633803 3.52112676 0 0 Z " fill="#D8D8D6" transform="translate(536,613)"/>
<path d="M0 0 C9.17286652 1.33041575 9.17286652 1.33041575 12.625 4.125 C13.07875 4.74375 13.5325 5.3625 14 6 C12.22950311 6.05410687 10.45853151 6.09284119 8.6875 6.125 C7.20830078 6.15980469 7.20830078 6.15980469 5.69921875 6.1953125 C3 6 3 6 0 4 C0 2.68 0 1.36 0 0 Z " fill="#FFFFFF" transform="translate(740,646)"/>
<path d="M0 0 C5.50772502 -0.32398382 9.1297706 0.58048803 14.125 2.875 C15.89230469 3.67550781 15.89230469 3.67550781 17.6953125 4.4921875 C18.78585937 4.98976563 19.87640625 5.48734375 21 6 C21.94617188 6.35320312 22.89234375 6.70640625 23.8671875 7.0703125 C26 8 26 8 27 10 C18 7 9 4 0 1 C0 0.67 0 0.34 0 0 Z " fill="#DFE0DA" transform="translate(407,375)"/>
<path d="M0 0 C5.29158974 1.40071493 7.77478044 4.85487245 11 9 C10.34 9 9.68 9 9 9 C9 9.66 9 10.32 9 11 C8.34 11 7.68 11 7 11 C7 10.01 7 9.02 7 8 C6.01 8 5.02 8 4 8 C4 7.34 4 6.68 4 6 C3.34 6 2.68 6 2 6 C1.34 4.02 0.68 2.04 0 0 Z " fill="#E7E8E4" transform="translate(1093,434)"/>
<path d="M0 0 C1.32 0 2.64 0 4 0 C4 4.62 4 9.24 4 14 C2.68 14 1.36 14 0 14 C0.66 13.67 1.32 13.34 2 13 C2 9.04 2 5.08 2 1 C1.34 0.67 0.68 0.34 0 0 Z " fill="#D3D4D3" transform="translate(430,722)"/>
<path d="M0 0 C0.33 0 0.66 0 1 0 C1 5.61 1 11.22 1 17 C0.34 16.67 -0.32 16.34 -1 16 C-0.67 15.34 -0.34 14.68 0 14 C-0.66 14 -1.32 14 -2 14 C-2.1799928 8.78020872 -1.97094808 4.92737019 0 0 Z " fill="#EDEFEA" transform="translate(912,1014)"/>
<path d="M0 0 C2.97 0.33 5.94 0.66 9 1 C9 2.32 9 3.64 9 5 C5.7 4.34 2.4 3.68 -1 3 C-0.67 2.01 -0.34 1.02 0 0 Z " fill="#CBCBC6" transform="translate(627,447)"/>
<path d="M0 0 C1.32 0.33 2.64 0.66 4 1 C1.03 3.97 -1.94 6.94 -5 10 C-5 7.16032769 -4.59732819 4.76264289 -4 2 C-3.01 2 -2.02 2 -1 2 C-0.67 1.34 -0.34 0.68 0 0 Z " fill="#DDDCDC" transform="translate(681,655)"/>
<path d="M0 0 C0.66 0 1.32 0 2 0 C2 5.94 2 11.88 2 18 C0.35 17.67 -1.3 17.34 -3 17 C-2.01 16.67 -1.02 16.34 0 16 C0 10.72 0 5.44 0 0 Z " fill="#D5D4D2" transform="translate(669,497)"/>
<path d="M0 0 C0.66 0 1.32 0 2 0 C2 3.63 2 7.26 2 11 C0.68 10.34 -0.64 9.68 -2 9 C-1.67 8.34 -1.34 7.68 -1 7 C-0.27228166 4.4934146 0 2.64773993 0 0 Z " fill="#E2E2E1" transform="translate(534,628)"/>
<path d="M0 0 C-0.99 0.495 -0.99 0.495 -2 1 C-2 2.32 -2 3.64 -2 5 C-3.9375 4.1875 -3.9375 4.1875 -6 3 C-6.33 2.01 -6.66 1.02 -7 0 C-3.98968256 -0.93423645 -3.13349732 -1.04449911 0 0 Z " fill="#D2D2D0" transform="translate(333,826)"/>
<path d="M0 0 C0.66 0 1.32 0 2 0 C2 1.32 2 2.64 2 4 C1.34 4 0.68 4 0 4 C-0.33 4.99 -0.66 5.98 -1 7 C-3.0625 7.6875 -3.0625 7.6875 -5 8 C-4.21718695 6.66144944 -3.42348123 5.32926356 -2.625 4 C-2.18414062 3.2575 -1.74328125 2.515 -1.2890625 1.75 C-0.86367187 1.1725 -0.43828125 0.595 0 0 Z " fill="#E5E5E2" transform="translate(256,826)"/>
<path d="M0 0 C0.33 0.99 0.66 1.98 1 3 C-0.43359375 5.04296875 -0.43359375 5.04296875 -2.4375 7.1875 C-3.09621094 7.90292969 -3.75492188 8.61835937 -4.43359375 9.35546875 C-4.95050781 9.89816406 -5.46742188 10.44085937 -6 11 C-6 7.39426104 -5.18292538 6.58663434 -3 3.8125 C-2.443125 3.09707031 -1.88625 2.38164063 -1.3125 1.64453125 C-0.879375 1.10183594 -0.44625 0.55914063 0 0 Z " fill="#DFDFDE" transform="translate(670,779)"/>
<path d="M0 0 C0.33 0.66 0.66 1.32 1 2 C2.65 2 4.3 2 6 2 C6.33 3.32 6.66 4.64 7 6 C1.25 4.375 1.25 4.375 -1 1 C-0.67 0.67 -0.34 0.34 0 0 Z " fill="#E9E9E8" transform="translate(263,302)"/>
<path d="M0 0 C0.99 0 1.98 0 3 0 C2.01 2.97 1.02 5.94 0 9 C-1.15941038 5.52176885 -0.70820884 3.54104422 0 0 Z " fill="#D7D8D6" transform="translate(631,1115)"/>
<path d="M0 0 C2.4375 0.375 2.4375 0.375 5 1 C5.33 1.66 5.66 2.32 6 3 C5.34 3.66 4.68 4.32 4 5 C4 4.34 4 3.68 4 3 C3.01 3.33 2.02 3.66 1 4 C0.67 2.68 0.34 1.36 0 0 Z " fill="#F1F2EF" transform="translate(982,545)"/>
</svg>
